<?xml version="1.0" encoding="iso-8859-1"?>
<!-- Generator: Adobe Illustrator 19.0.1, SVG Export Plug-In . SVG Version: 6.00 Build 0)  -->
<svg version="1.1" id="Layer_1" xmlns="http://www.w3.org/2000/svg" xmlns:xlink="http://www.w3.org/1999/xlink" x="0px" y="0px"
	 viewBox="0 0 271.383 240" style="enable-background:new 0 0 271.383 240;" xml:space="preserve">
<g id="New_Symbol_1">
</g>
<g>
	<path style="fill:#565656;" d="M122.662,33.78c-0.211,0.032-0.446,0.098-0.703,0.198c-0.257,0.1-0.514,0.249-0.769,0.447
		c-0.256,0.199-0.497,0.447-0.724,0.745c-0.227,0.299-0.415,0.662-0.561,1.091c-0.147,0.429-0.247,0.928-0.298,1.498
		c-0.052,0.57-0.027,1.223,0.076,1.96c0.125,0.941,0.324,1.754,0.596,2.44c0.272,0.685,0.592,1.253,0.958,1.703
		c0.366,0.451,0.768,0.79,1.205,1.018c0.437,0.228,0.876,0.347,1.319,0.358c0.389,0.001,0.762-0.05,1.118-0.156
		c0.402-0.087,0.744-0.199,1.026-0.337c0.282-0.138,0.503-0.279,0.662-0.424l-1.545-10.209
		C124.429,33.742,123.643,33.632,122.662,33.78z"/>
	<path style="fill:#565656;" d="M103.481,44.965c0.159,0.416,0.346,0.838,0.561,1.269c0.215,0.431,0.456,0.839,0.724,1.226
		c0.267,0.388,0.554,0.743,0.861,1.065c0.306,0.322,0.629,0.585,0.968,0.79c0.339,0.204,0.693,0.334,1.063,0.389
		c0.369,0.056,0.745,0.01,1.129-0.136c0.61-0.224,1.058-0.561,1.344-1.009c0.286-0.448,0.449-0.968,0.488-1.56
		c0.039-0.591-0.025-1.242-0.191-1.952c-0.166-0.71-0.395-1.444-0.685-2.203c-0.257-0.671-0.557-1.311-0.9-1.921
		s-0.727-1.127-1.15-1.551c-0.423-0.424-0.889-0.719-1.397-0.887c-0.508-0.167-1.051-0.145-1.629,0.067
		c-0.618,0.228-1.075,0.558-1.371,0.992c-0.296,0.434-0.477,0.936-0.543,1.506c-0.065,0.57-0.027,1.19,0.114,1.859
		C103.006,43.577,103.211,44.263,103.481,44.965z"/>
	<path style="fill:#565656;" d="M179.503,51.99c-0.341-0.119-0.685-0.204-1.033-0.256c-0.348-0.052-0.685-0.055-1.009-0.011
		c-0.325,0.045-0.629,0.151-0.915,0.317c-0.285,0.166-0.535,0.415-0.748,0.745c-0.497,0.768-0.641,1.449-0.434,2.041
		c0.208,0.593,0.721,1.113,1.541,1.562c0.327,0.171,0.664,0.269,1.009,0.294c0.345,0.024,0.676,0.022,0.991-0.009
		c0.408-0.632,0.816-1.259,1.224-1.882c0.408-0.622,0.815-1.249,1.224-1.881c-0.259-0.167-0.547-0.332-0.862-0.497
		C180.173,52.249,179.844,52.109,179.503,51.99z"/>
	<path style="fill:#565656;" d="M146.148,59.181c0.141,0.04,0.271,0.098,0.401,0.144c0.131,0.044,0.253,0.097,0.37,0.149
		c0.238,0.097,0.444,0.209,0.634,0.299c0.183,0.103,0.343,0.193,0.475,0.267c0.255,0.163,0.406,0.254,0.406,0.254
		s-0.123-0.123-0.347-0.335c-0.116-0.099-0.26-0.219-0.431-0.35c-0.178-0.121-0.373-0.268-0.607-0.395
		c-0.228-0.138-0.487-0.266-0.767-0.387c-0.281-0.121-0.584-0.235-0.905-0.324c-0.16-0.045-0.324-0.093-0.492-0.128
		c-0.167-0.041-0.337-0.076-0.51-0.101c-0.345-0.06-0.699-0.095-1.052-0.121c-0.354-0.017-0.71-0.021-1.057-0.009
		c-0.349,0.008-0.69,0.045-1.018,0.082c-0.657,0.078-1.26,0.21-1.768,0.349c-1.018,0.277-1.645,0.599-1.645,0.599
		s0.681-0.162,1.705-0.317c0.256-0.038,0.533-0.073,0.827-0.108c0.294-0.034,0.603-0.058,0.924-0.082
		c0.32-0.024,0.651-0.031,0.987-0.037c0.336-0.006,0.676,0.004,1.015,0.026c0.339,0.021,0.679,0.048,1.009,0.099
		c0.33,0.048,0.654,0.103,0.963,0.177C145.573,59.008,145.871,59.088,146.148,59.181z"/>
	<path style="fill:#565656;" d="M87.48,51.485c0.279,0.624,0.623,1.252,1.034,1.883c0.242,0.373,0.514,0.747,0.814,1.123
		c0.301,0.376,0.622,0.725,0.965,1.048c0.342,0.323,0.697,0.609,1.065,0.861c0.367,0.251,0.738,0.44,1.113,0.569
		c0.375,0.128,0.748,0.181,1.12,0.158c0.373-0.023,0.731-0.146,1.075-0.371c0.549-0.347,0.917-0.77,1.103-1.268
		c0.186-0.498,0.236-1.041,0.15-1.628c-0.086-0.586-0.285-1.21-0.597-1.869c-0.312-0.659-0.689-1.329-1.132-2.01
		c-0.392-0.602-0.819-1.165-1.283-1.689c-0.464-0.525-0.947-0.95-1.45-1.276c-0.503-0.326-1.02-0.517-1.552-0.574
		c-0.532-0.057-1.058,0.079-1.579,0.408c-0.556,0.352-0.934,0.771-1.133,1.257c-0.199,0.487-0.27,1.016-0.215,1.587
		C87.034,50.263,87.201,50.86,87.48,51.485z"/>
	<path style="fill:#565656;" d="M142.946,34.244c-0.133-0.315-0.339-0.58-0.619-0.791c-0.173-0.129-0.377-0.234-0.612-0.316
		c-0.236-0.081-0.507-0.13-0.814-0.147c-0.504-0.027-0.952,0.064-1.345,0.274c-0.393,0.21-0.732,0.509-1.018,0.895
		c-0.287,0.387-0.523,0.848-0.71,1.381c-0.188,0.534-0.323,1.106-0.408,1.718l5.673,0.308c0.046-0.365,0.084-0.747,0.113-1.143
		c0.03-0.397,0.027-0.78-0.008-1.15C143.163,34.902,143.079,34.559,142.946,34.244z"/>
	<path style="fill:#565656;" d="M145.845,64.418l-10.907,10.591c0.196,0.154,0.389,0.303,0.577,0.445L145.845,64.418z"/>
	<polygon style="fill:#565656;" points="117.384,60.655 129.649,72.514 117.911,60.133 	"/>
	<path style="fill:#565656;" d="M202.652,154.637c-0.019-0.012-0.122,0.084-0.307,0.285c-0.185,0.202-0.411,0.464-0.676,0.785
		c-0.265,0.321-0.549,0.671-0.85,1.05c-0.302,0.38-0.576,0.732-0.824,1.057c-0.247,0.325-0.453,0.603-0.614,0.833
		c-0.162,0.23-0.227,0.341-0.196,0.333c0.263-0.012,0.582-0.125,0.956-0.339c0.374-0.213,0.752-0.481,1.133-0.805
		c0.381-0.323,0.737-0.669,1.066-1.039c0.328-0.369,0.575-0.715,0.74-1.038c0.165-0.322,0.227-0.586,0.187-0.793
		C203.226,154.76,203.021,154.65,202.652,154.637z"/>
	<path style="fill:#565656;" d="M120.827,165.938c0.547-0.496,0.98-0.957,1.298-1.381c0.317-0.425,0.424-0.745,0.319-0.96
		c-0.49-0.295-1.043-0.457-1.658-0.482c-0.615-0.026-1.231,0.059-1.846,0.252c-0.616,0.193-1.212,0.477-1.787,0.85
		c-0.575,0.374-1.064,0.811-1.465,1.314c-0.402,0.502-0.693,1.054-0.872,1.655c-0.179,0.6-0.184,1.22-0.016,1.86
		c0.053,0.278,0.297,0.369,0.73,0.274c0.434-0.095,0.95-0.313,1.547-0.654c0.598-0.34,1.236-0.755,1.913-1.246
		C119.666,166.927,120.279,166.434,120.827,165.938z"/>
	<path style="fill:#565656;" d="M84.143,166.864c0.503,0.027,1.114-0.139,1.834-0.499c0.719-0.36,1.485-0.881,2.298-1.564
		c0.812-0.682,1.564-1.463,2.256-2.342c0.692-0.879,1.258-1.828,1.699-2.847c0.441-1.02,0.659-2.052,0.654-3.1
		c-0.344-0.357-0.824-0.434-1.44-0.232c-0.616,0.203-1.292,0.576-2.029,1.122s-1.481,1.213-2.234,2.002
		c-0.753,0.789-1.431,1.596-2.034,2.422s-1.082,1.615-1.438,2.367c-0.356,0.753-0.5,1.363-0.432,1.83
		C83.351,166.556,83.64,166.837,84.143,166.864z"/>
	<path style="fill:#565656;" d="M172.93,157.142c-0.548,0.346-1.114,0.873-1.696,1.581c-0.582,0.709-1.143,1.537-1.682,2.485
		c-0.54,0.948-1.001,1.896-1.385,2.843c-0.385,0.947-0.658,1.829-0.82,2.645c-0.163,0.816-0.155,1.443,0.024,1.879
		c0.202,0.5,0.55,0.702,1.045,0.606c0.494-0.095,1.047-0.404,1.658-0.929c0.611-0.523,1.226-1.215,1.849-2.075
		c0.623-0.859,1.162-1.799,1.62-2.82c0.458-1.02,0.777-2.078,0.958-3.174c0.18-1.096,0.141-2.151-0.118-3.166
		C173.963,156.755,173.479,156.796,172.93,157.142z"/>
	<path style="fill:#565656;" d="M189.182,159.219c-0.607,0.103-1.191,0.315-1.753,0.633c-0.562,0.318-1.086,0.72-1.569,1.205
		c-0.484,0.486-0.871,1.016-1.158,1.591c-0.288,0.576-0.457,1.175-0.506,1.8c-0.049,0.625,0.075,1.232,0.373,1.822
		c0.11,0.261,0.368,0.299,0.771,0.115c0.404-0.184,0.863-0.505,1.377-0.963c0.514-0.457,1.05-0.996,1.61-1.618
		c0.56-0.622,1.055-1.233,1.487-1.833c0.431-0.599,0.758-1.14,0.98-1.622c0.222-0.482,0.259-0.816,0.112-1.005
		C190.363,159.156,189.789,159.115,189.182,159.219z"/>
	<path style="fill:#565656;" d="M253.951,86.54h-1.827c-0.04-0.23-0.088-0.457-0.154-0.681c-1.586-5.41-10.312-8.136-12.625-13.191
		c-2.338-5.112,1.299-13.491-1.719-18.177c-3.036-4.715-12.176-4.87-15.836-9.091c-3.667-4.229-2.528-13.296-6.757-16.963
		c-4.221-3.66-13.034-1.25-17.749-4.286c-4.687-3.018-6.139-12.044-11.25-14.382c-5.056-2.313-12.827,2.484-18.237,0.898
		c-5.318-1.559-9.263-9.805-14.864-10.603c-5.465-0.779-11.561,6.017-17.242,6.017c-5.68,0-11.777-6.796-17.242-6.017
		c-5.601,0.798-9.547,9.044-14.864,10.603c-5.41,1.586-13.181-3.211-18.237-0.898c-5.112,2.338-6.564,11.364-11.25,14.382
		c-4.715,3.036-13.528,0.626-17.749,4.286c-4.229,3.667-3.089,12.735-6.757,16.963c-3.66,4.221-12.799,4.376-15.836,9.091
		c-3.018,4.687,0.619,13.066-1.719,18.178C29.726,77.723,21,80.448,19.414,85.858c-0.066,0.224-0.114,0.452-0.154,0.682h-1.828
		C7.805,86.54,0,94.345,0,103.972v32.056c0,9.627,7.805,17.432,17.432,17.432h1.827c0.04,0.23,0.088,0.457,0.154,0.681
		c1.586,5.41,10.312,8.136,12.625,13.191c2.338,5.112-1.299,13.491,1.719,18.177c3.036,4.715,12.176,4.87,15.836,9.091
		c3.667,4.229,2.528,13.296,6.757,16.963c4.221,3.66,13.034,1.25,17.749,4.287c4.687,3.018,6.139,12.044,11.25,14.382
		c5.056,2.313,12.827-2.484,18.237-0.898c5.318,1.559,9.263,9.805,14.864,10.603c5.465,0.779,11.562-6.017,17.242-6.017
		c5.68,0,11.777,6.796,17.242,6.017c5.601-0.798,9.547-9.044,14.864-10.603c5.41-1.586,13.181,3.211,18.237,0.898
		c5.112-2.338,6.564-11.364,11.25-14.382c4.715-3.036,13.528-0.626,17.749-4.286c4.229-3.667,3.089-12.735,6.757-16.963
		c3.66-4.221,12.799-4.376,15.836-9.091c3.018-4.687-0.619-13.066,1.719-18.178c2.313-5.056,11.039-7.781,12.625-13.192
		c0.066-0.224,0.114-0.452,0.154-0.682h1.828c9.627,0,17.432-7.805,17.432-17.432v-32.056
		C271.383,94.345,263.578,86.54,253.951,86.54z M253.616,103.973c0.257-0.501,0.598-0.934,1.02-1.299
		c0.423-0.365,0.895-0.651,1.417-0.859c0.522-0.208,1.041-0.311,1.557-0.311c0.644,0,1.195,0.093,1.653,0.279
		c0.458,0.186,0.838,0.433,1.138,0.741c0.3,0.308,0.522,0.673,0.666,1.095c0.143,0.422,0.215,0.87,0.215,1.342
		c0,0.616-0.126,1.174-0.376,1.675c-0.251,0.501-0.58,0.927-0.988,1.277c-0.408,0.351-0.873,0.623-1.396,0.816
		c-0.522,0.193-1.056,0.29-1.599,0.29c-0.472,0-0.931-0.079-1.374-0.236c-0.444-0.157-0.838-0.383-1.181-0.676
		c-0.344-0.293-0.619-0.651-0.827-1.073c-0.208-0.422-0.311-0.898-0.311-1.428C253.229,105.018,253.358,104.474,253.616,103.973z
		 M244.727,117.37l-6.097,5.99l8.073,11.658l2.533,0.451v2.469h-11.701v-2.469l2.233-0.558l-5.024-8.137l-2.77,2.963l0.193,2.769
		v2.469l2.77,0.515v2.448h-12.002v-2.448l3.156-0.58v-27.009l-3.629-1.202v-2.534l8.61-1.181l1.117,0.537v19.216l-0.193,3.135
		l8.073-8.481l-3.629-0.408v-3.156h12.174v3.156L244.727,117.37z M204.302,153.747c0.07,0.333,0.12,0.662,0.147,0.989
		s0.031,0.626,0.012,0.896c-0.019,0.271-0.057,0.463-0.113,0.576c-0.137,0.266-0.442,0.613-0.915,1.041
		c-0.473,0.429-0.999,0.899-1.577,1.41c-0.578,0.512-1.153,1.035-1.726,1.57c-0.573,0.535-1.028,1.038-1.366,1.509
		c-0.338,0.472-0.504,0.898-0.496,1.279c0.007,0.381,0.306,0.66,0.897,0.836c0.551-0.064,1.195-0.246,1.931-0.545
		c0.737-0.3,1.48-0.642,2.23-1.028c0.749-0.386,1.469-0.773,2.16-1.161c0.69-0.388,1.258-0.702,1.701-0.94l0.345,0.193
		c-0.239,0.54-0.707,1.092-1.406,1.657c-0.699,0.565-1.476,1.078-2.333,1.539c-0.857,0.461-1.711,0.829-2.561,1.105
		c-0.851,0.277-1.549,0.388-2.094,0.334c-0.51-0.045-0.926-0.201-1.247-0.467c-0.321-0.265-0.568-0.586-0.74-0.961
		c-0.173-0.375-0.282-0.786-0.33-1.233c-0.047-0.447-0.055-0.882-0.022-1.306c0.353-0.616,0.748-1.322,1.185-2.116
		c0.436-0.794,0.91-1.585,1.423-2.373c0.513-0.787,1.063-1.538,1.652-2.252c0.588-0.714,1.22-1.301,1.894-1.76
		c0.226-0.17,0.427-0.214,0.606-0.131c0.178,0.082,0.328,0.243,0.451,0.48C204.134,153.129,204.231,153.414,204.302,153.747z
		 M192.645,162.091c0.137,0.659,0.282,1.287,0.433,1.886c0.113,0.277,0.282,0.49,0.504,0.641c0.223,0.151,0.456,0.284,0.697,0.398
		c0.241,0.115,0.482,0.226,0.722,0.333c0.241,0.107,0.45,0.252,0.629,0.435c-0.029,0.219-0.138,0.348-0.328,0.389
		c-0.19,0.041-0.396,0.039-0.617-0.006c-0.221-0.044-0.429-0.107-0.624-0.189s-0.318-0.135-0.372-0.158
		c-0.678-0.312-1.205-0.752-1.582-1.32c-0.377-0.568-0.689-1.193-0.937-1.874l-0.263,0.045c-1.114,1.275-2.101,2.258-2.961,2.947
		c-0.86,0.689-1.607,1.15-2.242,1.382c-0.634,0.232-1.154,0.268-1.56,0.107c-0.406-0.161-0.697-0.444-0.872-0.849
		c-0.176-0.405-0.242-0.908-0.196-1.507c0.017-0.223,0.053-0.451,0.098-0.68c-0.303,0.273-0.622,0.545-0.978,0.814
		c-0.556,0.42-1.157,0.813-1.802,1.177c-0.644,0.365-1.283,0.635-1.916,0.811c-0.633,0.176-1.241,0.235-1.827,0.177
		c-0.585-0.057-1.087-0.291-1.507-0.701c-0.199-0.174-0.353-0.353-0.463-0.536c-0.11-0.183-0.269-0.337-0.479-0.461
		c-0.217,0.252-0.474,0.578-0.772,0.978c-0.298,0.399-0.625,0.803-0.979,1.208c-0.355,0.406-0.736,0.795-1.143,1.165
		c-0.408,0.371-0.836,0.663-1.285,0.876c-0.449,0.212-0.914,0.322-1.394,0.325c-0.481,0.004-0.958-0.155-1.435-0.477
		c-0.422-0.279-0.688-0.731-0.798-1.354c-0.11-0.624-0.099-1.342,0.031-2.155c0.13-0.813,0.361-1.674,0.692-2.582
		s0.736-1.785,1.213-2.629c0.477-0.843,1.012-1.611,1.604-2.304c0.591-0.692,1.201-1.225,1.828-1.595s1.26-0.547,1.898-0.528
		c0.638,0.019,1.249,0.323,1.836,0.91c0.366,0.367,0.604,0.752,0.715,1.156c0.109,0.403,0.148,0.823,0.114,1.259
		c-0.033,0.436-0.114,0.885-0.242,1.347c-0.129,0.463-0.252,0.929-0.371,1.398c-0.12,0.47-0.206,0.943-0.259,1.422
		c-0.054,0.479-0.021,0.956,0.097,1.432c0.148,0.603,0.462,0.935,0.941,0.996c0.48,0.061,1.036-0.033,1.668-0.282
		c0.633-0.249,1.29-0.607,1.972-1.074c0.682-0.467,1.311-0.927,1.889-1.382c0.577-0.455,1.244-1.018,2.002-1.688
		c0.022-0.007,0.038-0.01,0.06-0.017c0.155-0.257,0.324-0.513,0.515-0.767c0.469-0.623,1.038-1.163,1.707-1.623
		c0.669-0.46,1.44-0.809,2.311-1.049c0.871-0.239,1.843-0.302,2.914-0.189l0.214-0.333l2.124-7.045
		c0.442-0.01,0.73,0.138,0.865,0.444c0.135,0.306,0.191,0.658,0.168,1.056c-0.022,0.398-0.087,0.791-0.193,1.18
		c-0.107,0.388-0.186,0.669-0.238,0.842c-0.032,0.104-0.092,0.303-0.181,0.598c-0.09,0.295-0.194,0.646-0.313,1.052
		c-0.12,0.407-0.248,0.836-0.385,1.286c-0.136,0.451-0.265,0.88-0.384,1.286c-0.12,0.407-0.227,0.762-0.323,1.066
		s-0.153,0.499-0.171,0.584C192.532,160.783,192.508,161.432,192.645,162.091z M154.443,201.191l4.375-5.292h-2.729l3.361-4.067
		h-2.096l4.189-5.073l4.193,5.073h-2.096l3.358,4.067h-2.723l4.37,5.292h-6.24v1.781h-1.721v-1.781H154.443z M120.463,212.354
		l9.379-11.35h-5.85l7.206-8.721h-4.494l8.988-10.879l8.987,10.879h-4.493l7.204,8.721h-5.845l9.376,11.35h-13.384v3.818h-3.69
		v-3.818H120.463z M102.737,201.191l4.375-5.292h-2.728l3.36-4.067h-2.098l4.193-5.073l4.189,5.073h-2.093l3.36,4.067h-2.728
		l4.373,5.292h-6.243v1.781h-1.72v-1.781H102.737z M78.328,156.144c-0.531-0.074-1.117-0.127-1.756-0.159
		c-0.64-0.031-1.308-0.049-2.004-0.051c-0.696-0.002-1.375,0.012-2.037,0.042c-0.662,0.03-1.278,0.062-1.849,0.095
		c-0.571,0.033-1.043,0.067-1.415,0.102c-0.4,0.543-0.766,1.155-1.097,1.838c-0.332,0.683-0.667,1.368-1.008,2.056
		c-0.341,0.689-0.695,1.345-1.063,1.97c-0.369,0.624-0.791,1.158-1.269,1.602c-0.029-0.022-0.071-0.074-0.128-0.153
		c-0.057-0.079-0.091-0.135-0.1-0.171c-0.107-0.272-0.084-0.665,0.07-1.178c0.153-0.514,0.384-1.081,0.694-1.702
		c0.309-0.621,0.669-1.264,1.079-1.929c0.409-0.665,0.813-1.298,1.21-1.9c0.396-0.602,0.758-1.141,1.086-1.617
		c0.327-0.476,0.565-0.823,0.711-1.039c0.163-0.214,0.382-0.518,0.659-0.914c0.277-0.396,0.578-0.828,0.904-1.296
		c0.326-0.468,0.669-0.961,1.031-1.479c0.362-0.518,0.707-1.015,1.034-1.491c0.328-0.475,0.629-0.907,0.904-1.296
		c0.275-0.388,0.495-0.696,0.662-0.925c0.372-0.034,0.599,0.027,0.681,0.186c0.081,0.159,0.064,0.391-0.053,0.698
		c-0.117,0.306-0.311,0.666-0.583,1.079c-0.272,0.413-0.58,0.852-0.921,1.316c-0.341,0.465-0.694,0.94-1.056,1.424
		c-0.363,0.485-0.695,0.947-0.998,1.387c-0.303,0.44-0.55,0.846-0.738,1.22c-0.189,0.373-0.286,0.684-0.29,0.932
		c0.279,0.094,0.607,0.166,0.986,0.215c0.379,0.049,0.769,0.085,1.171,0.105c0.401,0.022,0.801,0.034,1.198,0.037
		c0.397,0.004,0.743,0.013,1.039,0.027c1.492,0.076,2.718-0.013,3.677-0.269c0.959-0.255,1.803-0.664,2.531-1.227
		c0.728-0.563,1.411-1.281,2.048-2.153c0.638-0.872,1.373-1.89,2.207-3.051c0.201-0.238,0.353-0.325,0.455-0.262
		c0.102,0.064,0.169,0.194,0.201,0.392c0.031,0.198,0.039,0.411,0.022,0.639c-0.017,0.229-0.051,0.387-0.103,0.475
		c-0.026,0.044-0.097,0.136-0.21,0.277c-0.114,0.141-0.237,0.293-0.372,0.454c-0.135,0.161-0.259,0.309-0.37,0.442
		c-0.112,0.133-0.181,0.222-0.207,0.266c-0.046,0.056-0.108,0.155-0.189,0.294c-0.08,0.141-0.171,0.29-0.272,0.451
		c-0.102,0.16-0.192,0.31-0.272,0.451s-0.135,0.24-0.165,0.3c0.075,0.033,0.166,0.131,0.271,0.295s0.157,0.287,0.156,0.37
		c-0.011,0.28-0.165,0.565-0.46,0.857c-0.297,0.292-0.646,0.585-1.05,0.878c-0.404,0.294-0.798,0.581-1.182,0.862
		c-0.384,0.281-0.666,0.56-0.841,0.836c-0.995,1.442-1.898,2.904-2.709,4.385c-0.812,1.482-1.514,3.045-2.104,4.691
		c-0.065,0.069-0.153,0.133-0.265,0.191c-0.112,0.058-0.217,0.044-0.314-0.044c0.044-0.355,0.176-0.828,0.396-1.418
		c0.219-0.591,0.479-1.231,0.779-1.92c0.299-0.689,0.617-1.387,0.953-2.093c0.336-0.706,0.647-1.355,0.934-1.948
		c0.287-0.593,0.522-1.084,0.707-1.475c0.184-0.391,0.274-0.612,0.269-0.663C79.284,156.323,78.859,156.218,78.328,156.144z
		 M74.312,69.45l2.109,1.194l-1.297-1.754l-5.1-8.016l2.086-2.263l8.36,4.48l2.024,1.116l-1.273-1.855l-4.037-5.972l-1.358,0.981
		l-1.386-1.278l3.973-4.309l1.377,1.269l-0.883,1.506l6.643,10.922l-2.304,2.499l-7.43-3.692l-2.119-1.221l1.424,1.975l4.422,6.955
		l-2.208,2.395l-11.758-5.449l-1.174,0.819l-1.386-1.278l4.434-4.81l1.386,1.278l-0.755,1.311L74.312,69.45z M84.283,49.77
		c0.234-0.887,0.637-1.703,1.208-2.447c0.571-0.745,1.254-1.385,2.047-1.922c0.934-0.618,1.854-1.023,2.76-1.214
		c0.906-0.192,1.78-0.181,2.622,0.031c0.842,0.213,1.636,0.614,2.382,1.204c0.747,0.591,1.427,1.359,2.043,2.305
		c0.678,1.058,1.116,2.099,1.314,3.124c0.197,1.024,0.196,1.994-0.004,2.91c-0.2,0.916-0.576,1.757-1.127,2.524
		c-0.552,0.767-1.236,1.416-2.053,1.948c-1.075,0.699-2.101,1.125-3.079,1.276c-0.977,0.152-1.894,0.088-2.749-0.193
		c-0.855-0.28-1.64-0.736-2.352-1.369c-0.713-0.633-1.342-1.383-1.887-2.253c-0.662-1.048-1.073-2.076-1.234-3.083
		C84.013,51.604,84.049,50.657,84.283,49.77z M99.395,43.316c0.054-1.018,0.288-1.937,0.703-2.755
		c0.415-0.818,0.98-1.531,1.695-2.139c0.715-0.608,1.516-1.091,2.405-1.449c1.043-0.409,2.027-0.611,2.953-0.609
		c0.926,0.002,1.778,0.196,2.557,0.58c0.779,0.384,1.471,0.943,2.077,1.677c0.606,0.734,1.111,1.628,1.514,2.682
		c0.442,1.177,0.651,2.287,0.629,3.33c-0.022,1.043-0.227,1.991-0.614,2.844c-0.387,0.854-0.931,1.597-1.631,2.232
		c-0.7,0.634-1.506,1.125-2.416,1.474c-1.198,0.459-2.29,0.659-3.278,0.603c-0.988-0.056-1.87-0.312-2.648-0.765
		s-1.449-1.063-2.013-1.832c-0.564-0.768-1.022-1.635-1.373-2.599C99.527,45.426,99.341,44.335,99.395,43.316z M124.173,28.505
		l-2.857-0.19l-0.225-1.484l5.555-1.438l0.771,0.208l2.858,18.883l1.763-0.267l0.179,1.179c-0.272,0.206-0.689,0.42-1.252,0.644
		c-0.563,0.223-1.229,0.393-1.999,0.51c-0.499,0.075-0.924,0.055-1.274-0.06c-0.351-0.116-0.605-0.382-0.763-0.799
		c-0.15,0.152-0.335,0.312-0.556,0.48c-0.221,0.168-0.493,0.327-0.816,0.48c-0.323,0.153-0.695,0.295-1.116,0.429
		c-0.421,0.133-0.898,0.239-1.43,0.32c-0.685,0.103-1.395,0.07-2.13-0.1c-0.735-0.17-1.423-0.504-2.065-1.004
		c-0.642-0.499-1.207-1.175-1.695-2.027c-0.488-0.851-0.828-1.911-1.02-3.179c-0.171-1.133-0.124-2.204,0.143-3.212
		c0.266-1.009,0.703-1.91,1.31-2.702c0.607-0.792,1.356-1.453,2.249-1.982c0.893-0.528,1.885-0.875,2.975-1.04
		c0.27-0.041,0.568-0.075,0.892-0.103c0.324-0.027,0.67-0.03,1.037-0.008L124.173,28.505z M131.677,74.749
		c-1.025-1.123-2.268-1.06-2.28-1.06l-0.096,0.006L116.28,60.547l2.71-2.683l12.954,13.081l0.067,0.068l-0.007,0.096
		c-0.001,0.012-0.075,1.251,1.037,2.29c0.409,0.382,0.842,0.754,1.273,1.109c2.939-2.993,8.47-8.627,8.548-8.708
		c1.719-1.815,2.41-2.919,2.287-3.751c-1.219-1.139-3.805-2.714-9.225-0.367c-0.294,0.127-0.506,0.017-0.605-0.128
		c-0.152-0.221-0.087-0.572,0.151-0.815c0.028-0.029,0.065-0.049,0.096-0.074c-0.159,0.009-0.318-0.029-0.439-0.118
		c-0.141-0.103-0.217-0.26-0.209-0.432c0.013-0.273,0.177-0.499,0.462-0.624c8.709-3.84,12.544-0.735,14.834,1.119l0.201,0.162
		c1.479,1.191,1.8,2.027,2.035,2.637c0.118,0.304,0.202,0.524,0.397,0.716l1.149,1.111c0.494,0.485,1.132,0.661,1.47,0.722
		c0.185,0.034,0.455,0.149,0.613,0.305l1.155,1.134c0.217,0.213,0.22,0.562,0.007,0.779l-2.98,3.034
		c-0.211,0.216-0.561,0.221-0.779,0.012l-1.094-1.05c-0.174-0.167-0.242-0.447-0.249-0.653c-0.01-0.315-0.226-1.179-2.017-2.379
		c-1.236-0.829-2.715-1.021-3.297-0.429c-0.454,0.464-0.991,0.983-1.27,1.252c-0.117,0.114-4.763,4.84-8.48,8.623
		c0.085,0.059,0.174,0.121,0.247,0.171c0.199-0.105,0.451-0.075,0.617,0.093l0.89,0.898l0.024,0.028
		c0.821-0.38,1.365,0.094,2.366,1.104c0.887,0.895,1.033,1.46,1.149,1.914c0.082,0.322,0.143,0.555,0.453,0.87
		c0.324,0.327,0.589,0.401,0.923,0.494c0.444,0.124,0.997,0.279,1.775,1.063l9.499,9.593c0.155,0.156,0.193,0.372,0.11,0.533
		l0.808,0.816c0.179,0.181,0.269,0.395,0.267,0.635c-0.007,0.625-0.662,1.262-1.19,1.774c-0.064,0.063-0.126,0.122-0.184,0.18
		c-0.056,0.055-0.115,0.114-0.175,0.175c-0.518,0.523-1.162,1.174-1.788,1.174c-0.24,0-0.453-0.092-0.633-0.273l-0.809-0.816
		c-0.162,0.083-0.377,0.042-0.531-0.114l-9.5-9.593c-0.778-0.785-0.927-1.34-1.046-1.785c-0.09-0.335-0.162-0.6-0.485-0.927
		c-0.311-0.314-0.544-0.376-0.865-0.462c-0.453-0.121-1.017-0.272-1.903-1.168c-0.941-0.949-1.41-1.491-1.143-2.23
		c-0.026-0.019-0.051-0.038-0.075-0.062l-0.734-0.742l-17.165,17.481c-0.345,0.353-0.914,0.358-1.266,0.012l-2.458-2.414
		c-0.352-0.346-0.358-0.914-0.012-1.266l18.009-18.342C132.062,75.18,131.871,74.961,131.677,74.749z M137.285,39.145
		c0.003,0.022,0.004,0.041,0.004,0.058c0.003,0.882,0.11,1.637,0.32,2.265c0.21,0.628,0.503,1.147,0.879,1.557
		c0.376,0.411,0.819,0.719,1.33,0.927c0.511,0.208,1.061,0.327,1.65,0.36c0.316,0.017,0.652,0.018,1.008,0.003
		c0.356-0.015,0.709-0.047,1.058-0.097c0.35-0.05,0.689-0.117,1.02-0.202c0.33-0.085,0.635-0.188,0.916-0.31l0.514,1.415
		c-0.304,0.232-0.679,0.441-1.126,0.626c-0.447,0.186-0.93,0.337-1.45,0.454c-0.52,0.118-1.066,0.199-1.638,0.246
		c-0.572,0.046-1.139,0.049-1.702,0.01c-1.101-0.068-2.071-0.297-2.911-0.684c-0.839-0.388-1.537-0.91-2.092-1.565
		c-0.556-0.656-0.961-1.438-1.215-2.346c-0.255-0.909-0.351-1.926-0.29-3.054c0.06-1.092,0.29-2.104,0.691-3.032
		c0.401-0.929,0.948-1.723,1.639-2.384c0.69-0.661,1.511-1.168,2.459-1.524c0.948-0.355,1.999-0.506,3.152-0.452
		c0.914,0.041,1.706,0.206,2.375,0.495c0.669,0.289,1.22,0.679,1.651,1.168c0.432,0.49,0.749,1.073,0.952,1.747
		c0.203,0.675,0.3,1.418,0.29,2.232c-0.012,0.538-0.05,1.01-0.115,1.413c-0.065,0.404-0.127,0.77-0.188,1.101l-9.182-0.499
		C137.281,39.1,137.282,39.124,137.285,39.145z M151.124,34.814l0.335-1.211l4.349-0.089l0.698,0.459l-0.495,1.792
		c0.382-0.196,0.807-0.362,1.276-0.499c0.468-0.137,0.952-0.234,1.451-0.291c0.499-0.057,0.998-0.075,1.498-0.052
		c0.499,0.022,0.977,0.092,1.433,0.209c0.776,0.206,1.394,0.498,1.853,0.877c0.459,0.38,0.781,0.851,0.968,1.412
		c0.186,0.561,0.247,1.217,0.182,1.966c-0.065,0.75-0.229,1.598-0.49,2.546l-1.875,6.787l1.76,0.806l-0.389,1.41l-7.158-1.977
		l0.389-1.41l1.894,0.177l1.728-6.255c0.193-0.7,0.324-1.303,0.393-1.808c0.069-0.504,0.047-0.934-0.063-1.288
		c-0.111-0.354-0.322-0.643-0.633-0.866c-0.311-0.224-0.752-0.409-1.322-0.558c-0.159-0.035-0.348-0.063-0.569-0.084
		c-0.221-0.021-0.457-0.026-0.708-0.016c-0.251,0.01-0.507,0.037-0.767,0.08c-0.26,0.044-0.509,0.108-0.745,0.193l-2.534,9.173
		l1.572,0.767l-0.389,1.409l-6.775-1.871l0.389-1.41l1.686,0.16l2.48-8.976L151.124,34.814z M183.268,48.399
		c-0.093-0.351-0.275-0.664-0.545-0.94c-0.27-0.276-0.598-0.54-0.986-0.79c-0.359-0.232-0.727-0.427-1.104-0.584
		c-0.377-0.157-0.741-0.288-1.091-0.392c-0.35-0.104-0.677-0.181-0.981-0.23c-0.305-0.049-0.563-0.082-0.777-0.097l0.302-1.744
		c0.277-0.035,0.633-0.021,1.066,0.041c0.434,0.061,0.91,0.171,1.43,0.328c0.519,0.157,1.063,0.364,1.631,0.619
		c0.568,0.256,1.129,0.561,1.682,0.919c0.653,0.422,1.223,0.88,1.709,1.372c0.485,0.492,0.834,1.033,1.044,1.621
		c0.209,0.589,0.258,1.231,0.145,1.926c-0.113,0.695-0.442,1.463-0.985,2.303l-4.468,6.887l1.39,0.898l-0.619,0.959
		c-0.223-0.002-0.459-0.032-0.706-0.09c-0.247-0.059-0.494-0.136-0.742-0.235c-0.247-0.098-0.487-0.211-0.721-0.337
		c-0.234-0.127-0.452-0.254-0.653-0.384c-0.136-0.088-0.29-0.206-0.461-0.351c-0.171-0.146-0.315-0.316-0.434-0.51
		c-0.119-0.194-0.187-0.411-0.204-0.651c-0.018-0.241,0.062-0.497,0.238-0.77l0.062-0.097c-0.603,0.13-1.256,0.148-1.959,0.055
		c-0.704-0.093-1.44-0.388-2.208-0.885c-0.775-0.502-1.365-1.046-1.77-1.633c-0.404-0.588-0.648-1.183-0.731-1.787
		c-0.084-0.603-0.019-1.193,0.195-1.767c0.214-0.575,0.55-1.106,1.008-1.593c0.371-0.402,0.81-0.686,1.315-0.853
		c0.505-0.167,1.042-0.251,1.612-0.249c0.569,0.001,1.155,0.072,1.757,0.212c0.602,0.14,1.181,0.315,1.737,0.527
		c0.555,0.212,1.078,0.442,1.568,0.693c0.49,0.251,0.907,0.487,1.252,0.71l0.264-0.409c0.367-0.567,0.605-1.07,0.715-1.508
		C183.354,49.144,183.362,48.75,183.268,48.399z M190.83,53.571l0.855-0.922l3.902,1.922l0.408,0.711l-1.552,1.674
		c0.333-0.17,0.719-0.26,1.161-0.27c0.441-0.011,0.88,0.032,1.316,0.127c0.436,0.096,0.848,0.233,1.236,0.412
		c0.388,0.179,0.701,0.379,0.94,0.6c0.213,0.198,0.401,0.387,0.566,0.568c0.164,0.181,0.269,0.323,0.315,0.424l-2.338,2.52
		c-0.072-0.287-0.222-0.606-0.453-0.954c-0.231-0.348-0.504-0.667-0.817-0.958c-0.263-0.244-0.51-0.444-0.739-0.598
		c-0.23-0.155-0.447-0.28-0.65-0.375c-0.203-0.095-0.386-0.166-0.548-0.211c-0.162-0.045-0.304-0.077-0.426-0.097l-6.227,6.715
		l2.137,2.506l-0.995,1.072l-6.395-5.931l0.995-1.072l1.526,0.996l6.323-6.818L190.83,53.571z M200.152,62.327l0.973-0.776
		c0.228,0.19,0.437,0.36,0.627,0.509c0.19,0.15,0.371,0.273,0.543,0.371c0.171,0.098,0.344,0.174,0.517,0.227
		c0.174,0.053,0.365,0.073,0.573,0.06c0.165,0.001,0.373-0.026,0.625-0.08c0.253-0.054,0.525-0.123,0.818-0.209
		c0.293-0.085,0.596-0.185,0.91-0.299c0.314-0.114,0.618-0.233,0.912-0.358l1.104,1.383l-2.677,2.136l2.712,3.398l-1.564,1.248
		l-2.64-3.308l-4.261,3.4c-0.843,0.672-1.506,1.226-1.989,1.661c-0.484,0.435-0.827,0.808-1.029,1.116
		c-0.203,0.309-0.285,0.575-0.249,0.798c0.036,0.223,0.155,0.461,0.358,0.715c0.117,0.147,0.26,0.303,0.431,0.468
		c0.17,0.165,0.343,0.32,0.518,0.464c0.175,0.145,0.348,0.272,0.518,0.383c0.17,0.11,0.317,0.188,0.439,0.232l-0.689,1.255
		c-0.29-0.021-0.611-0.108-0.965-0.264c-0.354-0.155-0.712-0.358-1.077-0.609c-0.365-0.251-0.72-0.535-1.067-0.854
		c-0.348-0.319-0.662-0.656-0.945-1.01c-0.389-0.488-0.652-0.951-0.788-1.389c-0.136-0.439-0.152-0.869-0.047-1.292
		c0.105-0.423,0.331-0.849,0.677-1.279c0.346-0.43,0.811-0.877,1.392-1.34l6.556-5.232L200.152,62.327z M213.166,131.185
		c-0.329-0.393-0.763-0.762-1.299-1.105c-0.537-0.343-1.157-0.676-1.857-0.998c-0.702-0.322-1.425-0.655-2.169-0.998
		c-0.945-0.444-1.855-0.92-2.727-1.428c-0.874-0.508-1.646-1.084-2.319-1.728c-0.672-0.644-1.205-1.374-1.599-2.19
		c-0.394-0.816-0.583-1.753-0.569-2.813c0.014-0.801,0.168-1.521,0.462-2.158c0.293-0.637,0.683-1.202,1.17-1.696
		c0.486-0.494,1.048-0.916,1.685-1.267c0.637-0.351,1.306-0.641,2.008-0.87c0.7-0.229,1.417-0.4,2.146-0.515
		c0.73-0.114,1.425-0.179,2.083-0.193c0.774-0.014,1.535,0.015,2.287,0.086c0.752,0.072,1.467,0.172,2.147,0.301
		c0.679,0.129,1.302,0.276,1.867,0.44c0.566,0.165,1.042,0.333,1.428,0.504v5.325h-2.92l-1.094-2.555
		c-0.386-0.429-0.859-0.805-1.417-1.127c-0.558-0.322-1.224-0.49-1.997-0.505c-0.516,0-1.006,0.05-1.471,0.15
		c-0.466,0.1-0.877,0.261-1.235,0.483c-0.358,0.222-0.641,0.501-0.848,0.837c-0.208,0.337-0.312,0.741-0.312,1.213
		c-0.015,0.544,0.107,1.034,0.365,1.471c0.257,0.437,0.604,0.837,1.041,1.202c0.436,0.365,0.948,0.705,1.536,1.02
		c0.587,0.315,1.203,0.63,1.846,0.945c0.931,0.429,1.876,0.866,2.834,1.31s1.825,0.963,2.599,1.556
		c0.773,0.594,1.406,1.295,1.899,2.104c0.494,0.809,0.74,1.779,0.74,2.909c0,1.331-0.278,2.473-0.836,3.424
		c-0.558,0.952-1.317,1.732-2.276,2.341c-0.96,0.608-2.08,1.059-3.36,1.352c-1.281,0.294-2.645,0.441-4.09,0.441
		c-0.673,0-1.371-0.04-2.094-0.118s-1.438-0.193-2.146-0.343c-0.709-0.15-1.396-0.343-2.061-0.58
		c-0.666-0.236-1.277-0.519-1.835-0.848v-5.325h2.834l1.138,2.47c0.258,0.243,0.53,0.483,0.816,0.719
		c0.285,0.236,0.601,0.451,0.945,0.644c0.343,0.193,0.725,0.358,1.148,0.494c0.423,0.136,0.891,0.218,1.407,0.247
		c1.431,0.072,2.555-0.179,3.37-0.752c0.816-0.572,1.224-1.417,1.224-2.533C213.66,132.027,213.495,131.579,213.166,131.185z
		 M194.487,135.49v2.448h-14.6v-2.448l3.006-0.515v-15.566l-2.984-1.889v-2.104l6.978-2.083l1.309,0.408v3.822
		c0.215-0.587,0.587-1.138,1.117-1.653c0.529-0.515,1.116-0.962,1.76-1.342c0.644-0.379,1.306-0.68,1.986-0.902
		c0.679-0.222,1.291-0.333,1.835-0.333c0.487,0,0.934,0.018,1.342,0.054c0.408,0.036,0.698,0.09,0.869,0.161v5.754
		c-0.415-0.272-0.963-0.49-1.643-0.655c-0.68-0.165-1.377-0.247-2.093-0.247c-0.601,0-1.13,0.036-1.588,0.107
		c-0.459,0.072-0.866,0.165-1.224,0.279c-0.358,0.115-0.662,0.236-0.912,0.365c-0.251,0.129-0.462,0.251-0.634,0.365v15.33
		L194.487,135.49z M154.489,134.653c-0.945-1.173-1.628-2.529-2.05-4.068c-0.423-1.539-0.619-3.167-0.591-4.884
		c0.029-2.075,0.39-3.893,1.084-5.454c0.694-1.56,1.61-2.855,2.748-3.886c1.138-1.031,2.448-1.807,3.929-2.33
		c1.481-0.522,3.024-0.798,4.626-0.827c1.875-0.014,3.535,0.258,4.982,0.816c1.445,0.558,2.662,1.371,3.65,2.437
		c0.987,1.066,1.735,2.355,2.243,3.865c0.508,1.51,0.762,3.21,0.762,5.099c-0.014,2.104-0.351,3.965-1.009,5.582
		c-0.659,1.618-1.546,2.978-2.662,4.08c-1.117,1.102-2.412,1.939-3.886,2.512c-1.474,0.572-3.027,0.859-4.659,0.859
		c-2.147,0-3.975-0.34-5.485-1.02C156.66,136.754,155.433,135.827,154.489,134.653z M90.959,107.493v-2.898H97.4
		c0.673,0,1.328-0.014,1.965-0.043c0.637-0.028,1.27-0.064,1.9-0.107c0.63-0.043,1.267-0.079,1.911-0.107
		c0.644-0.028,1.31-0.043,1.997-0.043c2.877,0,5.35,0.383,7.418,1.149c2.068,0.766,3.775,1.85,5.121,3.253
		c1.345,1.403,2.337,3.092,2.974,5.067c0.637,1.975,0.955,4.165,0.955,6.57c0,2.82-0.429,5.335-1.288,7.547
		c-0.859,2.211-2.051,4.083-3.575,5.614c-1.524,1.532-3.331,2.698-5.421,3.5c-2.09,0.801-4.373,1.188-6.849,1.159
		c-0.53,0-1.091-0.014-1.685-0.043c-0.594-0.029-1.195-0.057-1.803-0.085c-0.609-0.029-1.213-0.054-1.814-0.075
		c-0.601-0.021-1.174-0.032-1.717-0.032c-1.102,0-2.204,0.004-3.307,0.011c-1.102,0.007-2.204,0.011-3.306,0.011v-2.491l3.328-0.773
		v-26.752L90.959,107.493z M149.872,117.048l-2.383,0.644l-8.309,20.525h-4.766l-8.91-20.676l-2.168-0.515v-3.113h11.121v3.135
		l-2.233,0.558l4.015,10.714l1.567,5.067l1.352-4.981l3.543-10.821l-2.662-0.515v-3.156h9.833V117.048z M76.445,137.938H63.52
		v-2.448l3.027-0.537v-27.439l-3.135-1.03v-2.512l8.159-0.988l1.073,0.429v31.518l3.8,0.558V137.938z M50.187,137.734
		c-1.073,0.508-2.376,0.763-3.908,0.763c-1.546,0-2.87-0.229-3.972-0.687c-1.102-0.458-1.986-1.074-2.652-1.846
		c-0.666-0.773-1.11-1.66-1.331-2.662c-0.222-1.002-0.233-2.054-0.032-3.156c0.157-0.902,0.515-1.699,1.074-2.394
		c0.558-0.694,1.238-1.299,2.04-1.814c0.801-0.515,1.689-0.948,2.662-1.299c0.973-0.351,1.946-0.63,2.92-0.838
		c0.973-0.207,1.918-0.357,2.834-0.451c0.916-0.093,1.717-0.139,2.405-0.139v-0.816c0-1.13-0.122-2.054-0.365-2.77
		c-0.244-0.715-0.59-1.278-1.041-1.685s-0.991-0.683-1.621-0.827c-0.63-0.143-1.331-0.215-2.104-0.215
		c-0.716,0-1.41,0.061-2.083,0.183c-0.673,0.122-1.303,0.268-1.889,0.44c-0.587,0.172-1.116,0.362-1.589,0.569
		c-0.472,0.208-0.866,0.397-1.181,0.569l-1.159-2.727c0.358-0.3,0.87-0.604,1.535-0.912c0.666-0.308,1.435-0.587,2.308-0.837
		c0.873-0.251,1.825-0.454,2.855-0.612c1.031-0.157,2.097-0.236,3.199-0.236c1.302,0,2.519,0.125,3.65,0.376
		c1.13,0.251,2.111,0.694,2.941,1.331c0.83,0.637,1.482,1.496,1.954,2.576c0.472,1.081,0.709,2.458,0.709,4.133l-0.021,13.741h2.77
		v1.911c-0.315,0.201-0.673,0.373-1.074,0.515c-0.401,0.143-0.819,0.258-1.256,0.344c-0.437,0.085-0.877,0.146-1.32,0.182
		c-0.444,0.036-0.866,0.054-1.267,0.054c-0.272,0-0.594-0.026-0.966-0.075c-0.372-0.05-0.73-0.158-1.073-0.322
		c-0.343-0.165-0.637-0.408-0.88-0.73c-0.244-0.322-0.365-0.755-0.365-1.299v-0.193C52.162,136.607,51.261,137.226,50.187,137.734z
		 M83.008,163.214c0.323-0.757,0.757-1.536,1.299-2.337c0.542-0.801,1.147-1.553,1.815-2.255c0.667-0.702,1.372-1.318,2.115-1.846
		c0.742-0.528,1.463-0.897,2.161-1.104c0.699-0.208,1.355-0.224,1.969-0.051c0.614,0.173,1.134,0.616,1.561,1.328
		c0.266,0.446,0.404,0.877,0.413,1.295c0.008,0.418-0.057,0.834-0.194,1.249c-0.138,0.415-0.325,0.831-0.562,1.248
		s-0.47,0.84-0.699,1.266c-0.23,0.427-0.429,0.866-0.596,1.317c-0.168,0.452-0.252,0.922-0.253,1.413
		c-0.003,0.621,0.221,1.02,0.671,1.195s1.013,0.219,1.687,0.131c0.674-0.088,1.399-0.275,2.174-0.563
		c0.775-0.287,1.497-0.581,2.168-0.882c0.671-0.302,1.454-0.685,2.352-1.152c0.462-0.035,0.711,0.027,0.747,0.188
		c0.035,0.16-0.084,0.373-0.356,0.638c-0.274,0.265-0.669,0.555-1.185,0.869c-0.517,0.314-1.097,0.607-1.739,0.879
		c-0.642,0.273-1.32,0.507-2.033,0.705c-0.714,0.198-1.398,0.305-2.055,0.322c-0.657,0.017-1.262-0.074-1.815-0.271
		c-0.553-0.198-0.985-0.547-1.292-1.046c-0.151-0.217-0.257-0.427-0.318-0.633c-0.062-0.204-0.18-0.392-0.353-0.563
		c-0.272,0.192-0.601,0.446-0.986,0.761c-0.386,0.315-0.801,0.627-1.243,0.935s-0.907,0.593-1.392,0.854
		c-0.485,0.26-0.972,0.439-1.459,0.537s-0.965,0.09-1.431-0.023c-0.467-0.112-0.892-0.382-1.276-0.81
		c-0.341-0.373-0.49-0.876-0.445-1.508C82.501,164.666,82.685,163.972,83.008,163.214z M99.845,167.273
		c0.234-0.38,0.525-0.855,0.873-1.428c0.347-0.573,0.732-1.191,1.152-1.856c0.42-0.664,0.816-1.287,1.189-1.866
		c0.373-0.579,0.697-1.068,0.974-1.469c0.277-0.399,0.449-0.613,0.516-0.64c0.32,0.254,0.474,0.514,0.46,0.781
		c-0.014,0.267-0.08,0.538-0.201,0.813c-0.12,0.275-0.252,0.552-0.398,0.833c-0.145,0.28-0.189,0.57-0.131,0.867
		c0.272-0.156,0.652-0.373,1.138-0.651c0.486-0.277,1.013-0.563,1.582-0.858s1.161-0.579,1.777-0.854
		c0.616-0.275,1.19-0.484,1.722-0.628c0.532-0.143,1.005-0.206,1.417-0.188c0.413,0.017,0.706,0.163,0.879,0.437
		c0.173,0.274,0.199,0.704,0.078,1.287c-0.122,0.583-0.441,1.366-0.961,2.347c-0.057,0.109-0.197,0.37-0.418,0.783
		s-0.461,0.856-0.719,1.331c-0.259,0.475-0.499,0.919-0.719,1.33c-0.221,0.413-0.36,0.674-0.418,0.783
		c-0.021,0.063-0.051,0.178-0.089,0.346c-0.038,0.168-0.082,0.351-0.13,0.55c-0.049,0.199-0.113,0.389-0.193,0.57
		c-0.08,0.181-0.172,0.315-0.277,0.404c-0.105,0.089-0.217,0.068-0.336-0.064c-0.12-0.131-0.186-0.214-0.199-0.248
		c-0.004-0.537,0.083-1.062,0.264-1.575c0.18-0.513,0.408-1.015,0.684-1.504c0.275-0.49,0.568-0.978,0.876-1.464
		c0.308-0.487,0.58-0.968,0.814-1.446c0.234-0.476,0.411-0.95,0.53-1.42c0.12-0.469,0.127-0.944,0.019-1.425
		c-0.392-0.179-0.859-0.184-1.401-0.017c-0.542,0.167-1.121,0.441-1.737,0.821c-0.616,0.381-1.259,0.832-1.927,1.354
		c-0.669,0.522-1.322,1.054-1.96,1.595c-0.638,0.541-1.244,1.056-1.821,1.545c-0.577,0.489-1.094,0.889-1.55,1.201
		s-0.833,0.501-1.131,0.565c-0.298,0.065-0.484-0.052-0.557-0.35C99.501,167.85,99.61,167.651,99.845,167.273z M115.757,169.995
		c-0.669,0.094-1.185,0.02-1.547-0.222c-0.363-0.242-0.588-0.58-0.676-1.013c-0.088-0.433-0.046-0.938,0.123-1.514
		c0.17-0.576,0.445-1.153,0.826-1.729c0.38-0.576,0.865-1.119,1.454-1.63c0.589-0.51,1.258-0.92,2.009-1.23
		c0.751-0.31,1.577-0.49,2.48-0.542c0.902-0.051,1.865,0.09,2.889,0.424l0.279-0.28l3.552-6.444
		c0.434,0.083,0.685,0.288,0.753,0.615c0.067,0.327,0.048,0.683-0.057,1.068c-0.105,0.384-0.251,0.756-0.436,1.113
		c-0.185,0.357-0.322,0.615-0.409,0.773c-0.053,0.095-0.154,0.277-0.303,0.547c-0.149,0.269-0.325,0.591-0.527,0.963
		c-0.202,0.373-0.417,0.765-0.645,1.178c-0.228,0.412-0.443,0.805-0.644,1.177c-0.203,0.373-0.382,0.698-0.54,0.975
		c-0.157,0.277-0.254,0.456-0.29,0.535c-0.316,0.587-0.476,1.217-0.48,1.889c-0.004,0.673,0.006,1.317,0.029,1.934
		c0.052,0.294,0.172,0.538,0.359,0.733c0.186,0.194,0.386,0.373,0.598,0.535c0.213,0.163,0.424,0.322,0.637,0.477
		c0.213,0.155,0.388,0.341,0.524,0.557c-0.074,0.208-0.208,0.311-0.402,0.312c-0.194,0-0.396-0.045-0.603-0.135
		s-0.398-0.195-0.571-0.316c-0.173-0.12-0.284-0.198-0.33-0.232c-0.598-0.446-1.021-0.987-1.271-1.621
		c-0.25-0.634-0.424-1.311-0.524-2.028l-0.267-0.011c-1.356,1.013-2.527,1.767-3.512,2.261
		C117.252,169.608,116.425,169.902,115.757,169.995z M150.864,163.204c0.04-0.18,0.097-0.466,0.168-0.859
		c0.072-0.393,0.148-0.834,0.232-1.324c0.083-0.49,0.173-1.006,0.27-1.545s0.187-1.054,0.27-1.545
		c0.083-0.49,0.156-0.927,0.22-1.312c0.064-0.384,0.115-0.674,0.155-0.871c0.064-0.376,0.124-0.743,0.181-1.103
		c0.057-0.359,0.052-0.732-0.014-1.119c-0.493-0.14-1.006,0.009-1.537,0.447c-0.532,0.437-1.067,1.066-1.605,1.885
		c-0.538,0.819-1.075,1.769-1.61,2.847c-0.535,1.079-1.053,2.189-1.552,3.331c-0.5,1.142-0.98,2.267-1.44,3.374
		c-0.461,1.108-0.882,2.087-1.266,2.94c-0.383,0.852-0.72,1.533-1.014,2.041c-0.293,0.508-0.53,0.734-0.711,0.677
		c-0.23-0.054-0.327-0.317-0.292-0.79c0.036-0.472,0.166-1.074,0.393-1.806c0.226-0.732,0.52-1.564,0.884-2.496
		c0.363-0.933,0.761-1.896,1.195-2.889c0.433-0.993,0.879-1.986,1.336-2.98s0.894-1.914,1.31-2.76
		c0.415-0.846,0.783-1.588,1.103-2.228c0.319-0.639,0.553-1.108,0.702-1.406c0.345,0.114,0.647,0.145,0.904,0.093
		c0.257-0.052,0.495-0.148,0.717-0.289c0.221-0.14,0.436-0.303,0.647-0.492c0.21-0.188,0.449-0.369,0.717-0.543
		c0.566-0.383,1.021-0.557,1.363-0.524c0.342,0.033,0.596,0.2,0.765,0.5c0.168,0.3,0.264,0.714,0.287,1.239
		c0.024,0.527,0.009,1.099-0.043,1.717c-0.054,0.619-0.134,1.251-0.242,1.896c-0.108,0.646-0.215,1.243-0.32,1.79
		c-0.105,0.548-0.193,1.015-0.265,1.399c-0.072,0.384-0.097,0.625-0.077,0.721c0.132,0.059,0.241,0.046,0.327-0.039
		c0.085-0.085,0.158-0.17,0.219-0.254c0.045-0.083,0.155-0.242,0.332-0.477c0.175-0.235,0.378-0.507,0.607-0.818
		c0.229-0.31,0.474-0.642,0.733-0.995c0.26-0.352,0.508-0.684,0.745-0.995c0.237-0.311,0.44-0.583,0.608-0.818
		s0.282-0.394,0.343-0.478c1.357-1.181,2.513-2.065,3.468-2.652c0.954-0.587,1.734-0.927,2.338-1.019
		c0.604-0.092,1.051,0.034,1.343,0.377s0.46,0.843,0.506,1.497c0.046,0.654-0.016,1.445-0.184,2.368
		c-0.169,0.924-0.408,1.921-0.715,2.989c-0.042,0.148-0.122,0.456-0.238,0.923s-0.257,1.018-0.424,1.65
		c-0.166,0.632-0.334,1.301-0.505,2.005c-0.171,0.705-0.338,1.374-0.505,2.006c-0.166,0.632-0.307,1.181-0.423,1.649
		c-0.117,0.467-0.196,0.775-0.238,0.923c0.001,0.016-0.011,0.122-0.034,0.318s-0.065,0.429-0.127,0.699
		c-0.06,0.27-0.133,0.557-0.216,0.861c-0.084,0.304-0.193,0.581-0.327,0.83c-0.135,0.249-0.292,0.443-0.472,0.581
		c-0.181,0.138-0.386,0.172-0.616,0.102c-0.016,0.001-0.059-0.034-0.126-0.104c-0.069-0.07-0.112-0.121-0.129-0.152
		c-0.017-0.016-0.027-0.06-0.03-0.133c-0.004-0.073,0.002-0.126,0.017-0.159c0.014-0.033,0.042-0.132,0.084-0.295
		c0.041-0.165,0.09-0.337,0.146-0.518c0.057-0.181,0.105-0.354,0.147-0.518c0.041-0.163,0.069-0.27,0.082-0.32
		c0.401-1.527,0.752-2.893,1.054-4.098c0.302-1.206,0.589-2.383,0.861-3.531c0.272-1.147,0.538-2.331,0.8-3.551
		c0.26-1.22,0.55-2.608,0.869-4.163l-0.024-0.534c-0.477-0.14-0.982-0.102-1.516,0.118c-0.533,0.219-1.073,0.56-1.62,1.022
		c-0.547,0.463-1.097,1.011-1.653,1.645c-0.555,0.634-1.093,1.299-1.612,1.995c-0.52,0.697-1.024,1.385-1.512,2.064
		c-0.489,0.679-0.938,1.3-1.35,1.862c-0.413,0.562-0.785,1.025-1.117,1.388c-0.333,0.365-0.603,0.575-0.811,0.633
		c-0.145,0.039-0.323,0.027-0.537-0.036c-0.214-0.064-0.322-0.135-0.326-0.216L150.864,163.204z M34.579,80.514
		c2.106-1.424,4.284-2.896,4.979-4.415c0.712-1.557,0.4-4.194,0.097-6.745c-0.431-3.637-0.877-7.397,1.057-10.399
		c1.946-3.021,5.566-4.175,9.068-5.291c2.435-0.776,4.952-1.578,6.059-2.855c1.112-1.282,1.551-3.892,1.975-6.417
		c0.609-3.619,1.238-7.362,3.947-9.711c2.703-2.344,6.493-2.437,10.158-2.528c2.563-0.063,5.213-0.128,6.646-1.051
		c1.413-0.91,2.562-3.282,3.674-5.577c1.605-3.313,3.265-6.74,6.543-8.24c3.24-1.48,6.891-0.504,10.423,0.441
		c2.487,0.666,5.058,1.354,6.711,0.869c1.591-0.466,3.355-2.405,5.06-4.28c2.487-2.734,5.059-5.562,8.653-6.074
		c3.495-0.502,6.705,1.46,9.809,3.354c2.213,1.35,4.502,2.746,6.253,2.746c1.751,0,4.04-1.396,6.253-2.746
		c3.105-1.894,6.316-3.854,9.809-3.354c3.594,0.512,6.167,3.34,8.654,6.075c1.705,1.874,3.469,3.813,5.06,4.28
		c1.655,0.484,4.225-0.203,6.711-0.869c3.532-0.946,7.184-1.923,10.423-0.441c3.278,1.499,4.937,4.926,6.542,8.24
		c1.111,2.294,2.261,4.667,3.675,5.577c1.432,0.923,4.082,0.988,6.645,1.051c3.665,0.09,7.456,0.183,10.159,2.528
		c2.708,2.349,3.337,6.091,3.946,9.711c0.424,2.524,0.863,5.134,1.975,6.416c1.107,1.277,3.624,2.08,6.059,2.855
		c3.502,1.116,7.123,2.27,9.068,5.291c1.933,3.002,1.488,6.763,1.056,10.399c-0.303,2.551-0.615,5.188,0.097,6.745
		c0.695,1.519,2.873,2.991,4.979,4.415c2.54,1.717,5.147,3.486,6.542,6.025h-6.854c-0.789-0.608-1.674-1.206-2.547-1.796
		c-2.69-1.818-5.471-3.699-6.762-6.521c-1.308-2.86-0.91-6.22-0.524-9.47c0.325-2.741,0.661-5.575-0.279-7.034
		c-0.952-1.479-3.684-2.35-6.327-3.192c-3.107-0.99-6.319-2.014-8.365-4.375c-2.051-2.365-2.611-5.695-3.153-8.914
		c-0.459-2.73-0.934-5.554-2.257-6.701c-1.318-1.143-4.176-1.213-6.94-1.281c-3.268-0.08-6.646-0.163-9.284-1.862
		c-2.619-1.687-4.086-4.715-5.505-7.644c-1.211-2.501-2.464-5.087-4.072-5.822c-1.568-0.719-4.32,0.019-6.98,0.73
		c-3.166,0.848-6.44,1.722-9.467,0.836c-2.967-0.871-5.221-3.348-7.4-5.744c-1.879-2.066-3.823-4.203-5.598-4.456
		c-1.681-0.242-4.095,1.234-6.43,2.658c-2.815,1.717-5.726,3.493-8.912,3.493c-3.186,0-6.096-1.776-8.912-3.493
		c-2.335-1.425-4.745-2.898-6.43-2.658c-1.775,0.253-3.718,2.389-5.597,4.456c-2.18,2.395-4.433,4.873-7.4,5.743
		c-3.027,0.889-6.301,0.011-9.467-0.836c-2.66-0.712-5.41-1.448-6.98-0.73c-1.607,0.735-2.86,3.322-4.072,5.822
		c-1.419,2.929-2.886,5.958-5.504,7.644c-2.638,1.699-6.017,1.782-9.284,1.862c-2.763,0.068-5.621,0.138-6.939,1.281
		c-1.323,1.148-1.798,3.971-2.257,6.701c-0.541,3.22-1.101,6.55-3.153,8.915c-2.047,2.36-5.259,3.384-8.365,4.374
		c-2.643,0.842-5.375,1.713-6.327,3.192c-0.94,1.459-0.604,4.294-0.279,7.034c0.385,3.249,0.784,6.609-0.524,9.469
		c-1.291,2.822-4.072,4.702-6.762,6.521c-0.874,0.59-1.758,1.189-2.548,1.797h-6.853C29.431,84,32.038,82.231,34.579,80.514z
		 M13.602,137.938v-2.491l5.089-0.773v-27.009l-6.72,0.515l-1.481,4.208l-3.049,0.129l0.515-7.922H35.33l-0.043,7.815l-2.491,0.279
		l-1.417-4.509l-6.57-0.515v26.987l5.153,0.795v2.491H13.602z M236.804,159.486c-2.106,1.424-4.284,2.896-4.979,4.415
		c-0.712,1.557-0.4,4.195-0.097,6.745c0.431,3.636,0.877,7.396-1.056,10.399c-1.946,3.021-5.567,4.175-9.069,5.291
		c-2.435,0.776-4.952,1.578-6.059,2.855c-1.112,1.282-1.551,3.892-1.975,6.417c-0.609,3.619-1.238,7.362-3.947,9.712
		c-2.703,2.344-6.493,2.438-10.158,2.528c-2.563,0.063-5.213,0.128-6.646,1.051c-1.413,0.91-2.562,3.282-3.674,5.577
		c-1.605,3.314-3.265,6.74-6.543,8.24c-3.238,1.482-6.891,0.504-10.423-0.441c-2.486-0.666-5.057-1.354-6.711-0.868
		c-1.592,0.466-3.355,2.405-5.06,4.279c-2.487,2.734-5.059,5.562-8.653,6.074c-0.375,0.054-0.747,0.079-1.115,0.079
		c-3.067,0.001-5.923-1.742-8.694-3.432c-2.213-1.35-4.502-2.746-6.253-2.746c-1.751,0-4.04,1.396-6.253,2.746
		c-3.105,1.894-6.316,3.852-9.809,3.354c-3.594-0.512-6.166-3.34-8.654-6.074c-1.705-1.875-3.469-3.813-5.06-4.281
		c-1.654-0.482-4.224,0.204-6.711,0.869c-3.532,0.945-7.185,1.922-10.423,0.441c-3.278-1.499-4.938-4.926-6.543-8.24
		c-1.111-2.295-2.261-4.667-3.674-5.577c-1.433-0.923-4.083-0.988-6.646-1.051c-3.665-0.09-7.455-0.183-10.158-2.528
		c-2.709-2.349-3.338-6.092-3.947-9.712c-0.424-2.524-0.863-5.134-1.975-6.416c-1.107-1.277-3.624-2.08-6.059-2.855
		c-3.502-1.116-7.123-2.27-9.068-5.291c-1.933-3.002-1.488-6.763-1.056-10.399c0.303-2.551,0.615-5.187-0.097-6.745
		c-0.695-1.52-2.873-2.992-4.979-4.416c-2.54-1.717-5.147-3.485-6.541-6.025h6.854c0.789,0.608,1.673,1.206,2.546,1.796
		c2.69,1.818,5.471,3.699,6.763,6.521c1.308,2.86,0.91,6.22,0.524,9.469c-0.325,2.741-0.661,5.575,0.279,7.034
		c0.952,1.479,3.684,2.35,6.327,3.192c3.107,0.99,6.319,2.014,8.365,4.375c2.051,2.365,2.611,5.695,3.153,8.914
		c0.459,2.73,0.934,5.554,2.257,6.702c1.317,1.142,4.175,1.213,6.938,1.281c3.268,0.08,6.647,0.163,9.285,1.863
		c2.619,1.686,4.086,4.714,5.504,7.643c1.211,2.501,2.464,5.087,4.072,5.822c1.57,0.718,4.32-0.019,6.98-0.73
		c3.166-0.848,6.44-1.722,9.467-0.836c2.968,0.871,5.221,3.348,7.4,5.744c1.879,2.066,3.823,4.203,5.598,4.456
		c1.68,0.242,4.095-1.234,6.43-2.658c2.815-1.717,5.726-3.493,8.912-3.493c3.186,0,6.096,1.776,8.912,3.493
		c2.335,1.425,4.746,2.902,6.43,2.658c1.775-0.253,3.718-2.389,5.597-4.455c2.18-2.396,4.433-4.874,7.4-5.744
		c3.026-0.886,6.301-0.011,9.467,0.836c2.661,0.712,5.411,1.448,6.98,0.73c1.608-0.735,2.861-3.322,4.072-5.822
		c1.419-2.929,2.886-5.957,5.504-7.644c2.638-1.699,6.017-1.782,9.285-1.861c2.764-0.068,5.621-0.138,6.939-1.281
		c1.323-1.148,1.798-3.971,2.257-6.702c0.541-3.22,1.101-6.55,3.153-8.915c2.047-2.36,5.259-3.384,8.366-4.374
		c2.642-0.843,5.375-1.713,6.327-3.192c0.939-1.459,0.604-4.293,0.279-7.034c-0.385-3.249-0.784-6.609,0.524-9.47
		c1.291-2.822,4.072-4.702,6.762-6.521c0.874-0.59,1.758-1.188,2.548-1.796h6.854C241.952,156,239.344,157.769,236.804,159.486z
		 M263.943,137.938h-12.496v-2.448l3.221-0.558v-15.157l-2.834-2.426v-1.717l7.408-2.297l1.438,0.494v21.148l3.264,0.515V137.938z"
		/>
	<path style="fill:#565656;" d="M105.837,135.19c1.288-0.072,2.498-0.422,3.628-1.052c1.131-0.63,2.122-1.521,2.974-2.673
		c0.851-1.152,1.521-2.548,2.008-4.186c0.486-1.639,0.73-3.503,0.73-5.593c0-2.433-0.24-4.552-0.719-6.355
		c-0.48-1.803-1.181-3.303-2.104-4.498c-0.923-1.195-2.061-2.086-3.414-2.673c-1.353-0.587-2.895-0.88-4.627-0.88
		c-0.873,0.015-1.632,0.068-2.276,0.161c-0.644,0.093-1.195,0.218-1.653,0.376v26.709
		C101.744,135.125,103.561,135.348,105.837,135.19z"/>
	<polygon style="fill:#565656;" points="115.395,94.399 132.546,77.471 132.006,76.94 	"/>
	<path style="fill:#565656;" d="M166.576,134.868c0.715-0.53,1.281-1.245,1.696-2.147c0.415-0.902,0.705-1.957,0.869-3.167
		c0.165-1.21,0.247-2.494,0.247-3.854c0-1.202-0.086-2.383-0.257-3.543c-0.172-1.159-0.462-2.197-0.87-3.113
		c-0.408-0.916-0.959-1.657-1.653-2.222c-0.695-0.565-1.557-0.855-2.587-0.87c-1.102-0.014-2.015,0.229-2.738,0.73
		c-0.723,0.501-1.306,1.177-1.75,2.029c-0.444,0.852-0.755,1.843-0.934,2.973c-0.179,1.131-0.269,2.326-0.269,3.585
		c0,0.745,0.039,1.517,0.118,2.319c0.079,0.802,0.211,1.586,0.398,2.351c0.186,0.766,0.422,1.492,0.709,2.179
		c0.286,0.687,0.633,1.292,1.041,1.814c0.408,0.523,0.884,0.938,1.428,1.246c0.543,0.308,1.159,0.461,1.846,0.461
		C164.958,135.655,165.86,135.397,166.576,134.868z"/>
	<path style="fill:#565656;" d="M48.791,126.409c-0.587,0.143-1.149,0.336-1.685,0.58c-0.537,0.244-1.013,0.544-1.428,0.902
		c-0.415,0.358-0.748,0.783-0.998,1.278c-0.251,0.494-0.376,1.07-0.376,1.728c0,1.532,0.415,2.619,1.245,3.264
		c0.83,0.644,2.025,0.909,3.585,0.795c0.615-0.057,1.177-0.226,1.685-0.505c0.508-0.279,0.97-0.583,1.385-0.912
		c0-1.259,0.003-2.512,0.011-3.757c0.007-1.246,0.011-2.498,0.011-3.757c-0.515,0-1.07,0.029-1.664,0.086
		C49.968,126.165,49.378,126.266,48.791,126.409z"/>
</g>
</svg>
