<svg style="position: absolute; width: 0; height: 0;" width="0" height="0" version="1.1" xmlns="http://www.w3.org/2000/svg" xmlns:xlink="http://www.w3.org/1999/xlink">
<defs>
<symbol id="icon-facebook-icon" viewBox="0 0 1024 1024">
	<title>facebook-icon</title>
	<path class="path1" d="M512 1.024c-282.624 0-510.976 228.352-510.976 510.976s229.376 510.976 510.976 510.976c282.624 0 510.976-229.376 510.976-510.976 0-282.624-228.352-510.976-510.976-510.976zM648.192 503.808h-86.016c0 138.24 0 308.224 0 308.224h-129.024c0 0 0-167.936 0-308.224h-60.416v-109.568h60.416v-70.656c0-50.176 23.552-129.024 129.024-129.024h95.232v105.472c0 0-57.344 0-68.608 0s-27.648 5.12-27.648 29.696v64.512h97.28l-10.24 109.568z"></path>
</symbol>
<symbol id="icon-email-envelope" viewBox="0 0 1348 1024">
	<title>email-envelope</title>
	<path class="path1" d="M1188.181 0h-1028.164c-88.201 0-160.017 68.949-160.017 153.668v716.663c0 84.719 71.817 153.668 160.017 153.668h1028.164c88.269 0 160.017-68.949 160.017-153.668v-716.663c0-84.719-71.748-153.668-160.017-153.668zM1188.181 888.354h-1028.164c-12.971 0-24.371-8.397-24.371-18.022v-621.909l465.033 392.602c9.557 8.055 21.641 12.493 34.133 12.493h78.507c12.493 0 24.576-4.437 34.133-12.493l465.033-392.602v621.909c0.068 9.557-11.332 18.022-24.303 18.022zM674.133 518.827l-452.335-383.181h904.602l-452.267 383.181z"></path>
</symbol>
<symbol id="icon-email-form" viewBox="0 0 1032 1024">
	<title>email-form</title>
	<path class="path1" d="M925.909 415.616l-142.165 96.939v-195.84c0-10.539-8.533-19.115-19.115-19.115h-496.981c-10.581 0-19.115 8.576-19.115 19.115v195.84l-142.165-96.939c-8.747-5.931-20.651-3.712-26.581 4.992-5.973 8.747-3.712 20.608 5.035 26.581l357.376 243.669c20.736 14.123 47.36 21.205 73.941 21.205s53.205-7.083 73.941-21.205l357.376-243.669c8.704-5.931 10.965-17.835 5.035-26.581-5.931-8.704-17.835-10.923-26.581-4.992zM568.533 659.285c-28.416 19.371-76.373 19.371-104.789 0l-179.925-122.709c1.707-2.859 2.944-6.016 2.944-9.6v-191.147h458.795v191.147c0 3.584 1.237 6.741 2.944 9.6l-179.968 122.709z"></path>
	<path class="path2" d="M1003.179 342.272l-414.805-319.061c-19.413-14.976-45.056-23.211-72.235-23.211s-52.821 8.235-72.235 23.211l-414.976 319.189c-16.512 12.672-28.928 38.571-28.928 60.331v525.696c0 52.693 42.88 95.573 95.573 95.573h841.131c52.693 0 95.573-42.88 95.573-95.573v-525.696c0-21.717-12.501-47.701-29.099-60.459zM994.048 928.427c0 31.616-25.728 57.344-57.344 57.344h-841.131c-31.616 0-57.344-25.728-57.344-57.344v-525.696c0-9.728 6.912-24.576 13.952-29.995l414.976-319.232c12.629-9.685 30.464-15.275 48.939-15.275 18.517 0 36.352 5.547 48.981 15.275l414.805 319.061c7.125 5.504 14.165 20.437 14.165 30.165v525.696z"></path>
	<path class="path3" d="M649.941 412.288h-267.605c-10.581 0-19.115 8.576-19.115 19.115s8.533 19.115 19.115 19.115h267.648c10.581 0 19.115-8.576 19.115-19.115-0.043-10.581-8.576-19.115-19.157-19.115z"></path>
	<path class="path4" d="M649.941 488.747h-267.605c-10.581 0-19.115 8.576-19.115 19.115s8.533 19.115 19.115 19.115h267.648c10.581 0 19.115-8.576 19.115-19.115-0.043-10.539-8.576-19.115-19.157-19.115z"></path>
</symbol>
<symbol id="icon-fax" viewBox="0 0 978 1024">
	<title>fax</title>
	<path class="path1" d="M739.994 272.128h-255.078c-7.936 0-14.387-6.451-14.387-14.387s6.451-14.387 14.387-14.387h255.027c7.936 0 14.387 6.451 14.387 14.387s-6.4 14.387-14.336 14.387z"></path>
	<path class="path2" d="M622.182 190.003h-138.086c-7.936 0-14.387-6.451-14.387-14.387s6.451-14.387 14.387-14.387h138.086c7.936 0 14.387 6.451 14.387 14.387s-6.451 14.387-14.387 14.387z"></path>
	<path class="path3" d="M274.432 977.92c0.768 25.344-19.354 46.080-44.698 46.080h-184.986c-25.395 0-45.517-20.736-44.749-46.080 0 0 8.243-270.080 8.243-375.45 0-103.731-8.192-368.947-8.192-368.947-0.768-25.344 19.302-46.080 44.698-46.080h184.986c25.344 0 45.466 20.736 44.698 46.080 0 0-8.243 265.165-8.243 368.947 0 105.37 8.243 375.45 8.243 375.45z"></path>
	<path class="path4" d="M940.544 187.392l-35.482 0.512c-7.219 0-8.653-8.653-9.779-13.107-3.379-13.414-11.264-27.034-20.992-35.021l-148.378-122.010c-12.288-10.138-33.536-17.766-49.459-17.766h-236.288c-20.173 0-36.608 16.435-36.608 36.608v137.114c0 0 0.41 13.67-10.035 13.67-6.81 0-30.566 0-30.566 0-20.582 0-37.478 16.845-37.478 37.478v761.651c0.051 20.634 16.896 37.478 37.478 37.478h577.536c20.582 0 37.478-16.845 37.478-37.478v-761.651c0-20.582-16.845-37.478-37.427-37.478zM715.776 53.197c0-6.246 5.632-1.536 5.632-1.536l122.522 104.653c0 0 5.53 4.762-2.202 4.762-29.082 0-116.378 0-116.378 0-5.222 0-9.472-4.25-9.472-9.472-0.102 0-0.102-73.83-0.102-98.406zM430.694 36.608c0-5.171 4.352-9.472 9.472-9.472h236.288c8.755 0 12.186 6.605 12.186 10.752v113.715c0 20.173 16.435 36.608 36.608 36.608h137.882c7.219 0 6.81 6.349 6.81 6.349v210.944c0 7.219-6.144 6.502-7.731 6.502h-425.062c-1.587 0-6.451-0.256-6.451-5.786v-369.613zM542.464 914.022c0 12.698-10.394 23.040-23.040 23.040h-81.254c-12.698 0-23.040-10.394-23.040-23.040v-68.813c0-12.698 10.394-23.040 23.040-23.040h81.254c12.698 0 23.040 10.394 23.040 23.040v68.813zM542.464 764.16c0 12.698-10.394 23.040-23.040 23.040h-81.254c-12.698 0-23.040-10.394-23.040-23.040v-68.813c0-12.698 10.394-23.040 23.040-23.040h81.254c12.698 0 23.040 10.394 23.040 23.040v68.813zM542.464 614.298c0 12.698-10.394 23.040-23.040 23.040h-81.254c-12.698 0-23.040-10.394-23.040-23.040v-68.813c0-12.698 10.394-23.040 23.040-23.040h81.254c12.698 0 23.040 10.394 23.040 23.040v68.813zM715.418 914.022c0 12.698-10.394 23.040-23.040 23.040h-81.203c-12.698 0-23.040-10.394-23.040-23.040v-68.813c0-12.698 10.394-23.040 23.040-23.040h81.203c12.698 0 23.040 10.394 23.040 23.040v68.813zM715.418 764.16c0 12.698-10.394 23.040-23.040 23.040h-81.203c-12.698 0-23.040-10.394-23.040-23.040v-68.813c0-12.698 10.394-23.040 23.040-23.040h81.203c12.698 0 23.040 10.394 23.040 23.040v68.813zM715.418 614.298c0 12.698-10.394 23.040-23.040 23.040h-81.203c-12.698 0-23.040-10.394-23.040-23.040v-68.813c0-12.698 10.394-23.040 23.040-23.040h81.203c12.698 0 23.040 10.394 23.040 23.040v68.813zM888.371 914.022c0 12.698-10.394 23.040-23.040 23.040h-81.203c-12.698 0-23.040-10.394-23.040-23.040v-68.813c0-12.698 10.394-23.040 23.040-23.040h81.203c12.698 0 23.040 10.394 23.040 23.040v68.813zM888.371 764.16c0 12.698-10.394 23.040-23.040 23.040h-81.203c-12.698 0-23.040-10.394-23.040-23.040v-68.813c0-12.698 10.394-23.040 23.040-23.040h81.203c12.698 0 23.040 10.394 23.040 23.040v68.813zM888.371 614.298c0 12.698-10.394 23.040-23.040 23.040h-81.203c-12.698 0-23.040-10.394-23.040-23.040v-68.813c0-12.698 10.394-23.040 23.040-23.040h81.203c12.698 0 23.040 10.394 23.040 23.040v68.813z"></path>
</symbol>
<symbol id="icon-lcoation-form" viewBox="0 0 680 1024">
	<title>lcoation-form</title>
	<path class="path1" d="M340.071 1024l-64.403-97.572c-0.645-0.967-66.821-101.199-134.448-222.348-95.033-170.317-141.219-289.37-141.219-363.97 0-187.526 152.584-340.111 340.071-340.111s340.071 152.584 340.071 340.111c0 74.559-46.186 193.612-141.259 363.97-64 114.66-127.355 211.547-134.327 222.186l-64.484 97.733zM340.071 40.302c-165.28 0-299.768 134.489-299.768 299.809 0 66.579 45.824 182.448 136.141 344.302 66.902 119.859 132.232 218.801 132.877 219.768l30.751 46.63 30.751-46.589c7.013-10.64 69.602-106.398 132.917-219.809 91.607-164.191 136.141-276.836 136.141-344.302 0-165.32-134.489-299.809-299.809-299.809zM340.071 523.929c-102.569 0-185.995-83.426-185.995-185.995s83.426-185.995 185.995-185.995c102.529 0 185.995 83.426 185.995 185.995s-83.426 185.995-185.995 185.995zM340.071 192.242c-80.363 0-145.693 65.37-145.693 145.693s65.37 145.693 145.693 145.693c80.322 0 145.693-65.37 145.693-145.693s-65.33-145.693-145.693-145.693z"></path>
</symbol>
<symbol id="icon-location" viewBox="0 0 1152 1024">
	<title>location</title>
	<path class="path1" d="M575.846 793.037c31.898 0 297.933-330.496 297.933-495.053s-133.427-297.984-297.933-297.984c-164.557 0-297.984 133.427-297.984 297.984 0.051 164.557 267.264 495.053 297.984 495.053zM383.386 287.539c0-106.291 86.17-192.461 192.461-192.461s192.461 86.17 192.461 192.461-86.17 192.461-192.461 192.461c-106.291 0-192.461-86.17-192.461-192.461z"></path>
	<path class="path2" d="M1105.050 565.299c0-27.443-22.323-49.766-49.766-49.766 0 0-132.864 0-181.453 0-3.789 0-8.141-0.205-12.954 7.834-9.574 16.077-8.755 14.643-17.715 29.542-4.198 6.912 2.15 9.267 4.762 9.267 58.112 0 207.36 0 207.36 0 1.638 0 3.123 1.485 3.123 3.123l46.694 408.934c0 1.638-1.434 3.123-3.123 3.123h-1052.211c-1.69 0-3.123-1.485-3.123-3.123l46.694-408.934c0-1.638 1.434-3.123 3.123-3.123 0 0 154.317 0 205.773 0 4.25 0 10.957-2.458 3.328-14.899-8.96-14.592-5.478-10.291-14.95-26.419-3.533-5.99-8.448-5.325-15.053-5.325-44.749 0-179.046 0-179.046 0-27.443 0-49.766 22.323-49.766 49.766l-46.746 408.934c0 27.443 22.323 49.766 49.766 49.766h1052.16c27.443 0 49.766-22.323 49.766-49.766l-46.643-408.934z"></path>
</symbol>
<symbol id="icon-mobile" viewBox="0 0 580 1024">
	<title>mobile</title>
	<path class="path1" d="M505.344 0h-430.848c-41.216 0-74.496 33.434-74.496 74.598v874.906c0 41.114 33.28 74.496 74.496 74.496h430.848c41.165 0 74.496-33.382 74.496-74.496v-874.906c0.051-41.165-33.331-74.598-74.496-74.598zM183.603 45.312h212.685c5.376 0 9.728 8.038 9.728 17.971s-4.352 17.971-9.728 17.971h-212.685c-5.427 0-9.677-8.038-9.677-17.971 0-9.984 4.301-17.971 9.677-17.971zM289.997 950.374c-26.214 0-47.565-21.35-47.565-47.616s21.35-47.565 47.565-47.565c26.163 0 47.514 21.248 47.514 47.565s-21.402 47.616-47.514 47.616zM524.032 787.354h-468.173v-661.504h468.173v661.504z"></path>
</symbol>
<symbol id="icon-name-form" viewBox="0 0 934 1024">
	<title>name-form</title>
	<path class="path1" d="M915.029 889.856c-19.669-64.725-178.773-152.405-252.757-184.661-5.035-2.176-10.795-2.091-15.701 0.299l-179.371 86.699-160.768-86.357c-4.821-2.603-10.581-2.944-15.701-0.939-64.427 25.088-252.501 113.024-271.317 185.771-13.44 51.925-18.773 77.397-19.029 78.464-0.256 1.237-0.384 2.517-0.384 3.84 0 25.515 12.843 37.589 23.595 43.221 15.829 8.277 34.816 7.595 54.4 7.211 4.181-0.085 8.491-0.171 12.8-0.171h752.043c5.632 0 11.264 0.213 16.64 0.384 5.461 0.213 10.795 0.384 15.872 0.384 14.379 0 58.197 0 58.197-48.555 0-19.669-1.835-30.677-18.517-85.589zM875.349 986.411c-4.651 0-9.515-0.171-14.549-0.341-5.845-0.213-11.904-0.427-17.963-0.427h-752.085c-4.565 0-9.088-0.085-13.525 0-4.011 0.085-7.979 0-11.776 0-0.043 0-0.085 0-0.128 0-5.163 0-18.517 0.128-24.363-2.901-1.152-0.597-3.072-1.451-3.371-7.936 1.536-6.997 7.083-31.872 18.176-74.709 10.965-42.453 144.725-118.357 240.555-156.971l161.493 86.741c5.291 2.859 11.648 2.987 17.067 0.384l180.181-87.083c105.899 47.573 213.419 123.008 223.957 157.653 16.043 52.821 16.853 60.459 16.853 74.667 0.085 8.619 0.085 10.923-20.523 10.923z"></path>
	<path class="path2" d="M269.397 483.968c10.155 25.344 21.717 43.52 33.877 62.635 3.413 5.419 6.912 10.88 10.453 16.64 12.203 20.011 24.576 35.029 38.357 46.379-0.939 18.517-3.243 41.301-7.381 58.24-2.475 10.069 3.669 20.267 13.781 22.741 10.069 2.475 20.267-3.669 22.741-13.781 5.632-22.869 8.235-54.101 8.832-75.733 0.171-6.357-2.859-12.331-8.064-15.957-12.843-8.875-24.32-22.059-36.139-41.472-3.627-5.973-7.253-11.648-10.795-17.237-13.013-20.48-24.32-38.187-33.877-64.768-2.475-6.912-9.685-11.819-17.024-12.416-1.835-0.128-6.784-3.115-9.472-7.979-19.029-34.816-27.179-88.021-23.595-98.901 0.469-0.299 2.603-1.024 7.168-0.981 5.333 0.427 10.24-1.835 13.909-5.547 3.627-3.669 5.589-8.704 5.419-13.909-3.968-107.861 35.712-165.845 69.717-195.499 6.272-5.419 8.192-14.336 4.779-21.888-0.213-0.512-0.469-0.981-0.725-1.493 16.043-10.752 42.965-10.069 43.307-9.984l1.024-18.773 15.488-10.667c-1.237-2.816 1.28-9.685 4.821-15.957 10.667 8.917 24.917 15.275 38.272 18.987 38.613 10.709 66.645 21.717 84.011 29.355 80.128 31.744 123.733 114.133 119.595 225.963-0.171 5.035 1.664 9.941 5.12 13.611s8.235 5.803 13.312 5.888c3.456 0.085 5.248 0.768 5.12 0.427 4.053 11.477-4.096 64.768-23.083 99.584-2.688 4.907-7.552 7.936-9.429 8.192-6.869 0.939-12.672 5.589-15.061 12.117-9.728 26.283-21.547 44.8-34.048 64.427-3.797 5.931-7.637 11.989-11.52 18.304-11.392 18.731-21.76 31.36-32.64 39.723-4.651 3.584-7.339 9.131-7.296 15.019 0.128 17.109 1.536 50.219 9.557 79.744 2.304 8.363 9.856 13.867 18.133 13.867 1.664 0 3.285-0.213 4.949-0.683 10.027-2.731 15.915-13.099 13.184-23.083-5.845-21.419-7.595-46.208-8.064-61.355 11.733-10.709 22.784-24.832 34.261-43.648 3.712-6.101 7.424-11.904 11.093-17.664 11.733-18.389 23.851-37.376 34.261-62.933 10.325-4.651 19.712-13.312 25.557-23.979 21.888-40.149 34.517-104.619 25.515-130.091-3.627-10.283-11.008-17.792-21.163-21.931-0.171-119.125-53.12-210.56-142.976-246.144-17.835-7.851-47.701-19.627-88.491-30.933-17.92-4.949-26.581-13.099-27.477-14.635-0.811-5.035-3.669-9.515-7.851-12.416s-9.387-4.011-14.379-2.987c-16.427 3.285-30.763 25.259-36.437 39.253-2.176 5.803-3.669 11.477-4.267 16.896-24.875 3.499-59.733 15.488-69.376 50.56-1.109 3.2-1.451 6.613-0.896 9.899-32.597 36.437-63.659 95.787-63.787 189.483-11.392 3.84-19.669 11.648-23.552 22.784-9.045 25.429 3.584 89.856 25.472 130.005 6.272 11.477 16.555 20.395 27.776 24.704z"></path>
</symbol>
<symbol id="icon-phone-form" viewBox="0 0 1038 1024">
	<title>phone-form</title>
	<path class="path1" d="M1037.312 847.232c-2.773-18.688-14.891-35.157-37.12-50.347l-228.992-156.715c-11.819-8.064-25.557-12.331-39.765-12.331-22.101 0-42.837 10.453-55.509 28.032l-59.435 84.139c-4.651 6.528-5.76 14.549-6.059 22.315-22.741 3.328-88.619 1.323-196.779-106.795-104.576-104.405-154.069-181.205-147.669-228.608 1.152-0.555 2.005-1.707 3.029-2.475 5.461-1.493 10.453-3.371 14.507-6.528l82.091-62.165c29.269-22.144 35.029-65.109 12.715-95.957l-164.139-223.829c-31.573-43.008-68.693-47.488-108.544-13.227-25.216 21.589-67.029 73.813-84.395 105.173-9.515 16.811-13.44 34.176-11.776 51.627-6.016 25.173-19.243 99.243 2.773 202.581 29.909 140.459 110.805 275.328 240.427 400.811 216.747 209.707 407.125 241.024 501.333 241.067v0c55.381 0 94.037-10.155 111.829-17.664 16.555 0.683 32.896-3.968 48.853-13.525 30.891-18.261 81.621-61.824 102.357-87.851 16.384-20.267 22.997-39.168 20.267-57.728zM986.837 880.768c-17.877 22.443-65.109 62.933-91.947 78.805-3.627 2.176-7.211 3.755-10.795 5.077-26.112-11.349-72.107-35.371-85.888-52.608-6.656-8.32-18.859-9.685-27.221-3.029-8.363 6.699-9.685 18.859-3.029 27.221 12.16 15.189 35.413 30.336 56.661 42.155-16.981 3.669-40.576 6.912-70.613 6.912v0c-88.32 0-267.435-29.909-474.411-230.187-295.125-285.696-239.104-541.227-231.723-569.429 0.64-2.517 0.811-5.163 0.427-7.723-1.536-10.24 0.683-20.395 6.741-31.147 15.147-27.435 54.101-76.075 75.819-94.72 9.984-8.576 18.859-13.141 25.685-13.141 2.901 0 11.819 0 26.453 19.925l164.053 223.701c9.941 13.781 7.808 32.725-4.821 42.24l-81.152 61.611c-0.341 0.171-0.896 0.341-1.451 0.512-21.419-16.427-50.688-41.216-59.947-55.339-5.803-8.96-17.835-11.435-26.795-5.632-8.917 5.845-11.435 17.835-5.632 26.752 12.501 19.2 42.709 44.544 62.037 59.733-15.403 63.061 33.579 147.243 156.971 270.464 98.347 98.304 169.984 118.912 212.821 118.912 18.773 0 32.853-4.181 39.723-8.107 5.163-2.944 8.704-8.107 9.6-13.995 0.384-2.645 0.512-6.443 0.555-10.624 0.043-2.304 0.085-6.315 0.341-8.533l58.112-82.219c8.832-12.288 28.544-15.36 41.941-6.229l228.992 156.672c12.629 8.619 19.584 16.725 20.651 24.064 1.067 7.168-2.987 16.555-12.16 27.904z"></path>
	<path class="path2" d="M496.853 222.976c149.717 45.739 266.837 162.261 313.344 311.723 2.56 8.277 10.24 13.611 18.475 13.611 1.92 0 3.84-0.299 5.76-0.853 10.197-3.157 15.915-14.037 12.757-24.235-50.304-161.707-177.067-287.787-339.029-337.237-10.24-3.2-21.035 2.645-24.149 12.843-3.115 10.24 2.645 21.035 12.843 24.149z"></path>
	<path class="path3" d="M523.435 79.573c224.469 53.077 396.075 233.941 437.205 460.843 1.707 9.344 9.856 15.915 19.029 15.915 1.152 0 2.304-0.085 3.456-0.299 10.539-1.92 17.493-11.989 15.616-22.528-43.861-242.048-226.944-435.029-466.389-491.648-10.368-2.347-20.821 3.968-23.296 14.379-2.475 10.453 3.968 20.864 14.379 23.339z"></path>
</symbol>
</defs>
</svg>
